<?xml version="1.0" standalone="no"?><!DOCTYPE svg PUBLIC "-//W3C//DTD SVG 1.1//EN" "http://www.w3.org/Graphics/SVG/1.1/DTD/svg11.dtd"><svg t="1513233895697" class="icon" style="" viewBox="0 0 1024 1024" version="1.1" xmlns="http://www.w3.org/2000/svg" p-id="31667" xmlns:xlink="http://www.w3.org/1999/xlink" width="200" height="200"><defs><style type="text/css"></style></defs><path d="M65.626673 663.653979 65.626673 360.674503l41.126676 0L265.889743 598.553285 265.889743 360.674503l38.441521 0 0 302.979476-41.127699 0L104.06717 425.569512l0 238.084467L65.626673 663.653979z" p-id="31668"></path><path d="M340.436576 663.653979 340.436576 360.674503l219.071438 0 0 35.754319L380.530736 396.428821l0 92.795453 167.609369 0 0 35.546587L380.530736 524.770861l0 103.128799 186.004321 0 0 35.754319L340.436576 663.653979z" p-id="31669"></path><path d="M653.433196 663.653979l-80.396051-302.979476 41.127699 0 46.087665 198.611453c4.959965 20.806885 9.228175 41.472554 12.812817 62.001099 7.714705-32.376385 12.261255-51.048653 13.640672-56.007595l57.661258-204.604958 48.361451 0 43.400462 153.349597c10.881838 38.029128 18.735713 73.782424 23.560602 107.262956 3.854794-19.149129 8.886391-41.127699 15.086603-65.927525l47.53462-194.685028 40.300868 0-83.081207 302.979476-38.647205 0-63.86147-230.851739c-5.374404-19.288299-8.54563-31.136138-9.507538-35.547611-3.171226 13.917988-6.132674 25.765827-8.886391 35.547611l-64.274886 230.851739L653.433196 663.653979z" p-id="31670"></path></svg>