<?xml version="1.0" standalone="no"?><!DOCTYPE svg PUBLIC "-//W3C//DTD SVG 1.1//EN" "http://www.w3.org/Graphics/SVG/1.1/DTD/svg11.dtd"><svg t="1513234752662" class="icon" style="" viewBox="0 0 1024 1024" version="1.1" xmlns="http://www.w3.org/2000/svg" p-id="51212" xmlns:xlink="http://www.w3.org/1999/xlink" width="200" height="200"><defs><style type="text/css"></style></defs><path d="M512 128c102.4 0 198.4 38.4 268.8 115.2C857.6 313.6 896 409.6 896 505.6c0 102.4-38.4 198.4-115.2 275.2C710.4 857.6 614.4 896 512 896s-198.4-38.4-268.8-115.2C166.4 710.4 128 614.4 128 512s38.4-198.4 115.2-268.8C313.6 166.4 409.6 128 512 128m0-64c-115.2 0-224 44.8-313.6 134.4-179.2 179.2-179.2 448 0 627.2C288 915.2 396.8 960 512 960s224-44.8 313.6-134.4c179.2-179.2 179.2-454.4 0-627.2C736 108.8 627.2 64 512 64z" fill="#333333" p-id="51213"></path><path d="M800 544h-256v256c0 19.2-12.8 32-32 32s-32-12.8-32-32v-256h-256c-19.2 0-32-12.8-32-32s12.8-32 32-32h256v-256c0-19.2 12.8-32 32-32s32 12.8 32 32v256h256c19.2 0 32 12.8 32 32s-12.8 32-32 32z" fill="#333333" p-id="51214"></path></svg>