<?xml version="1.0" standalone="no"?><!DOCTYPE svg PUBLIC "-//W3C//DTD SVG 1.1//EN" "http://www.w3.org/Graphics/SVG/1.1/DTD/svg11.dtd"><svg t="1513233969747" class="icon" style="" viewBox="0 0 1024 1024" version="1.1" xmlns="http://www.w3.org/2000/svg" p-id="32351" xmlns:xlink="http://www.w3.org/1999/xlink" width="200" height="200"><defs><style type="text/css"></style></defs><path d="M731.428571 108.928c-121.179429 0-219.428571 98.212571-219.428571 219.428571 0 121.179429 98.249143 219.428571 219.428571 219.428571s219.428571-98.249143 219.428571-219.428571C950.857143 207.140571 852.608 108.928 731.428571 108.928zM868.571429 355.785143l-109.714286 0 0 109.714286-54.857143 0 0-109.714286-109.714286 0 0-54.857143 109.714286 0 0-109.714286 54.857143 0 0 109.714286 109.714286 0L868.571429 355.785143zM725.595429 536.96c-3.968 0-7.826286-0.384-11.721143-0.585143l-4.48 25.654857c-1.462857 11.739429-12.178286 20.992-24.32 21.101714l-352.987429 26.057143c-7.168 0.512-13.714286 3.821714-18.358857 9.234286-4.717714 5.504-7.003429 12.452571-6.473143 19.584 1.005714 14.061714 12.781714 24.978286 26.788571 24.978286l1.974857-0.036571 351.049143-25.984c18.230857-0.073143 36.041143-7.021714 50.230857-19.602286 14.098286-12.598857 23.04-29.403429 25.289143-47.542857l6.546286-37.504C755.072 535.314286 740.553143 536.96 725.595429 536.96zM308.242286 791.515429c-29.165714 0-52.918857 23.808-52.918857 53.010286 0 29.238857 23.734857 53.028571 52.918857 53.028571 29.202286 0 52.955429-23.808 52.955429-53.028571C361.197714 815.323429 337.462857 791.515429 308.242286 791.515429zM281.856 298.203429l237.568 0c2.724571-18.889143 7.881143-36.992 15.341714-53.888L281.856 244.315429c-14.829714 0-26.934857 12.086857-26.934857 26.953143S267.008 298.203429 281.856 298.203429zM672.420571 791.515429c-29.202286 0-52.955429 23.808-52.955429 53.010286 0 29.238857 23.753143 53.028571 52.955429 53.028571 29.165714 0 52.918857-23.808 52.918857-53.028571C725.339429 815.323429 701.604571 791.515429 672.420571 791.515429zM723.986286 713.362286 301.531429 713.362286c-10.642286 0-21.156571-10.057143-22.509714-21.394286l-44.288-312.521143-25.106286-145.042286c-4.681143-38.290286-38.4-68.260571-76.708571-68.260571L99.785143 166.144c-14.829714 0-26.916571 12.068571-26.916571 26.934857 0 14.866286 12.068571 26.953143 26.916571 26.953143L132.937143 220.032c11.044571 0 22.016 10.404571 23.442286 22.217143l25.161143 145.590857 44.105143 311.058286c4.644571 38.363429 38.016 68.370286 75.904 68.370286l422.454857 0c14.866286 0 26.898286-12.086857 26.898286-26.934857C750.884571 725.449143 738.889143 713.362286 723.986286 713.362286z" p-id="32352"></path></svg>