<?xml version="1.0" standalone="no"?><!DOCTYPE svg PUBLIC "-//W3C//DTD SVG 1.1//EN" "http://www.w3.org/Graphics/SVG/1.1/DTD/svg11.dtd"><svg t="1513234989149" class="icon" style="" viewBox="0 0 1704 1024" version="1.1" xmlns="http://www.w3.org/2000/svg" p-id="9732" xmlns:xlink="http://www.w3.org/1999/xlink" width="332.8125" height="200"><defs><style type="text/css"></style></defs><path d="M851.565737 0.623858c-281.734129 0-511.064213 229.330084-511.064214 511.064213s229.330084 511.064213 511.064214 511.064214 511.064213-229.330084 511.064213-511.064214S1133.299866 0.623858 851.565737 0.623858z m0 961.988546c-248.669672 0-450.924333-202.254661-450.924333-450.924333 0-248.669672 202.254661-450.924333 450.924333-450.924333 248.669672 0 450.924333 202.254661 450.924332 450.924333 0 248.669672-202.254661 450.924333-450.924332 450.924333z m0 0" p-id="9733"></path><path d="M979.33179 383.922018c0 35.310345 28.572682 63.883027 63.883027 63.883026 35.310345 0 63.883027-28.572682 63.883026-63.883026 0-35.310345-28.572682-63.883027-63.883026-63.883027-35.310345 0-63.883027 28.572682-63.883027 63.883027z m-383.29816 0c0 35.310345 28.572682 63.883027 63.883027 63.883026 35.310345 0 63.883027-28.572682 63.883026-63.883026 0-35.310345-28.572682-63.883027-63.883026-63.883027-35.310345 0-63.883027 28.572682-63.883027 63.883027z m259.649567 212.73547c-91.582308-1.62203-177.425125 44.044352-227.458511 120.778847-6.612891 9.607408-7.486292 21.95979-2.245887 32.315828 5.115633 10.356038 15.596442 17.218472 27.075423 17.717558 11.603753 0.499086 22.583648-5.240405 28.697453-15.097356 37.930547-58.393079 103.310832-93.204338 172.93335-91.831851 66.628 1.122944 128.389911 34.93603 165.447057 90.334593 4.616547 7.111978 11.978068 11.978068 20.337761 13.724869 8.359693 1.62203 16.968929 0 23.956135-4.741319 14.59827-9.856951 18.590959-29.695626 8.858779-44.293895-48.785671-73.11612-130.011941-117.410016-217.60156-118.907274z m0 0" p-id="9734"></path></svg>