<?xml version="1.0" standalone="no"?><!DOCTYPE svg PUBLIC "-//W3C//DTD SVG 1.1//EN" "http://www.w3.org/Graphics/SVG/1.1/DTD/svg11.dtd"><svg t="1513234611044" class="icon" style="" viewBox="0 0 1024 1024" version="1.1" xmlns="http://www.w3.org/2000/svg" p-id="3927" xmlns:xlink="http://www.w3.org/1999/xlink" width="200" height="200"><defs><style type="text/css"></style></defs><path d="M511.39584 1024C228.97152 1024 0.0256 795.04896 0.0256 512.62464S228.97664 1.24928 511.39584 1.24928c282.42432 0 511.37536 228.95616 511.37536 511.37536 0 282.42432-228.95104 511.37536-511.37536 511.37536z m0-936.03328c-234.53184 0-424.6528 190.12608-424.6528 424.65792 0 234.53696 190.12608 424.6528 424.6528 424.6528 234.53696 0 424.6528-190.12096 424.6528-424.6528 0-234.53184-190.12096-424.65792-424.6528-424.65792z m0 672.9984c-137.15968 0-248.34048-111.19104-248.34048-248.3456s111.18592-248.34048 248.34048-248.34048c137.15456 0 248.34048 111.18592 248.34048 248.34048s-111.18592 248.3456-248.34048 248.3456z" fill="#333333" p-id="3928"></path></svg>