<?xml version="1.0" standalone="no"?><!DOCTYPE svg PUBLIC "-//W3C//DTD SVG 1.1//EN" "http://www.w3.org/Graphics/SVG/1.1/DTD/svg11.dtd"><svg t="1513235362045" class="icon" style="" viewBox="0 0 1024 1024" version="1.1" xmlns="http://www.w3.org/2000/svg" p-id="46860" xmlns:xlink="http://www.w3.org/1999/xlink" width="200" height="200"><defs><style type="text/css"></style></defs><path d="M856.955 385.982c-0.576 51.994-17.18 99.534-39.61 145.414-33.606 68.752-78.228 130.188-126.727 188.953a1674.96 1674.96 0 0 1-145.31 154.924c-18.07 16.966-34.56 17.487-53.085 0.86-95.92-86.088-182.123-180.471-247.925-292.122-10.708-18.17-20.417-36.901-28.778-56.284-7.924-18.371-1.09-37.588 16.019-45.522 17.159-7.957 36.876-0.977 45.223 17.179 39.328 85.525 96.853 158.197 159.714 227.12 24.238 26.575 49.63 52.032 75.916 76.598 3.251 3.035 5.297 5.501 9.915 0.85 87.11-87.772 168.663-179.933 228.036-289.487 17.307-31.935 31.738-65.306 36.572-101.67 7.285-54.818-3.725-106.97-29.73-155.073-49.527-91.617-126.403-143.863-231.328-147.547-119.527-4.194-225.729 72.994-263.349 186.985-9.45 28.636-14.455 57.985-14.845 88.142-0.278 21.561-14.415 36.785-33.901 36.735-19.547-0.047-33.82-15.627-33.763-36.842 0.442-160.357 110.896-299.273 266.559-335.243C575.346 20.188 713.309 73.71 791.262 183.557c43.058 60.673 64.45 128.308 65.693 202.425z" fill="" p-id="46861"></path><path d="M136.976 921.538h761.592c-0.038-4.378-2.923-7.237-4.75-10.443a88258.895 88258.895 0 0 0-99.363-174.033c-7.122-12.438-7.563-24.826 0.36-36.856 7.136-10.84 17.599-16.087 30.61-15.196 11.692 0.807 20.894 6.55 26.682 16.642C897.4 780.654 942.75 859.623 987.575 938.89c13.837 24.473-3.273 50.588-32.371 50.595-151.587 0.05-303.173 0.023-454.756 0.023-138.542 0-277.091-0.693-415.622 0.534-31.09 0.277-50.153-28.114-33.062-56.87 44.725-75.247 87.24-151.808 130.682-227.82 9.356-16.367 23.981-23.556 39.297-19.578 22.652 5.892 32.51 29.94 20.504 51.174-23.185 41.015-46.707 81.841-70.066 122.757-11.486 20.12-22.924 40.26-35.205 61.833zM653.783 380.312c0.008 74.774-61.006 135.555-135.907 135.386-74.259-0.166-134.827-60.984-134.825-135.377 0.004-74.86 60.867-135.493 135.87-135.353 74.255 0.137 134.856 60.957 134.862 135.344z m-134.954-67.66c-37.586 0.01-68.025 30.204-68.088 67.536-0.062 37.754 30.84 68.18 68.885 67.823 36.531-0.343 66.629-31.177 66.471-68.096-0.157-36.859-30.57-67.271-67.268-67.263z" fill="" p-id="46862"></path></svg>