<?xml version="1.0" standalone="no"?><!DOCTYPE svg PUBLIC "-//W3C//DTD SVG 1.1//EN" "http://www.w3.org/Graphics/SVG/1.1/DTD/svg11.dtd"><svg t="1513234879892" class="icon" style="" viewBox="0 0 1024 1024" version="1.1" xmlns="http://www.w3.org/2000/svg" p-id="7266" xmlns:xlink="http://www.w3.org/1999/xlink" width="200" height="200"><defs><style type="text/css"></style></defs><path d="M588.543304 721.573109c-14.486946 0-26.196639-11.709693-26.196639-26.196639l0-288.163025c0-14.486946 11.709693-26.196639 26.196639-26.196639 14.486946 0 26.196639 11.709693 26.196639 26.196639l0 288.163025C614.739942 709.863417 603.030249 721.573109 588.543304 721.573109L588.543304 721.573109zM431.363472 721.573109c-14.486946 0-26.196639-11.709693-26.196639-26.196639l0-288.163025c0-14.486946 11.709693-26.196639 26.196639-26.196639s26.196639 11.709693 26.196639 26.196639l0 288.163025C457.56011 709.863417 445.850417 721.573109 431.363472 721.573109L431.363472 721.573109zM748.179071 276.230252l-59.35176 0 0-52.393277c0-43.328831-34.972513-78.589916-77.987189-78.589916L409.66938 145.247058c-43.328831 0-78.589916 35.261085-78.589916 78.589916l0 52.393277-59.35176 0c-14.486946 0-26.196639 11.709693-26.196639 26.196639s11.709693 26.196639 26.196639 26.196639l476.451366 0c14.486946 0 26.196639-11.709693 26.196639-26.196639S762.666016 276.230252 748.179071 276.230252L748.179071 276.230252zM383.472741 223.836975c0-14.434757 11.761881-26.196639 26.196639-26.196639l201.170742 0c14.355963 0 25.593911 11.499915 25.593911 26.196639l0 52.393277-252.961292 0L383.472741 223.836975 383.472741 223.836975zM693.434236 878.752942 326.629105 878.752942c-43.328831 0-78.589916-35.261085-78.589916-78.589916L248.039189 406.820496c0-14.46034 11.736299-26.196639 26.196639-26.196639 14.46034 0 26.196639 11.736299 26.196639 26.196639l0 393.34253c0 14.46034 11.762905 26.196639 26.196639 26.196639l366.80513 0c14.461363 0 26.196639-11.736299 26.196639-26.196639L719.630874 407.894967c0-14.461363 11.710716-26.196639 26.196639-26.196639 14.486946 0 26.196639 11.735275 26.196639 26.196639l0 392.268058C772.024152 843.491857 736.76409 878.752942 693.434236 878.752942L693.434236 878.752942z" p-id="7267"></path></svg>