<?xml version="1.0" standalone="no"?><!DOCTYPE svg PUBLIC "-//W3C//DTD SVG 1.1//EN" "http://www.w3.org/Graphics/SVG/1.1/DTD/svg11.dtd"><svg t="1513234441630" class="icon" style="" viewBox="0 0 1024 1024" version="1.1" xmlns="http://www.w3.org/2000/svg" p-id="42657" xmlns:xlink="http://www.w3.org/1999/xlink" width="200" height="200"><defs><style type="text/css"></style></defs><path d="M512 60.426231c-199.336978 0-360.926236 161.589258-360.926236 360.926236S433.920714 925.757488 433.920714 925.757488c43.123147 50.331315 113.696482 50.600445 156.393933-0.26913 0 0 282.612613-304.798914 282.612613-504.135892S711.336978 60.426231 512 60.426231L512 60.426231zM512 576.783469c-92.224448 0-166.964686-74.747401-166.964686-166.964686 0-92.217285 74.740238-166.964686 166.964686-166.964686 92.217285 0 166.964686 74.747401 166.964686 166.964686C678.964686 502.036068 604.218308 576.783469 512 576.783469L512 576.783469zM512 576.783469" p-id="42658"></path></svg>