<?xml version="1.0" standalone="no"?><!DOCTYPE svg PUBLIC "-//W3C//DTD SVG 1.1//EN" "http://www.w3.org/Graphics/SVG/1.1/DTD/svg11.dtd"><svg t="1513234177670" class="icon" style="" viewBox="0 0 1114 1024" version="1.1" xmlns="http://www.w3.org/2000/svg" p-id="36269" xmlns:xlink="http://www.w3.org/1999/xlink" width="217.578125" height="200"><defs><style type="text/css"></style></defs><path d="M-6.0e-06 47.371914" p-id="36270"></path><path d="M831.827183 1000.963331 393.116373 593.833797c-2.668783-1.490957-66.290799-59.328223-66.837244-59.854203-6.311753-5.762237-9.534144-13.56597-9.073656-21.933545-0.436952-8.063653 2.464121-15.573697 8.18645-21.263279l-0.033769-0.095167c-0.155543-0.430812-0.201591-0.560772 30.609135-26.109658L831.756575 23.093974c6.01704-5.600555 13.994736-8.6848 22.463618-8.6848 8.467859 0 16.445554 3.084245 22.459524 8.682753 6.070252 5.54939 9.426697 12.93152 9.450233 20.786419 0.024559 7.916297-3.330862 15.394618-9.448186 21.055548L394.87953 512.025583 876.68074 959.045639c6.076392 5.591345 9.435906 13.008268 9.458419 20.884656 0.024559 7.90504-3.309372 15.374152-9.386788 21.033036-6.013971 5.563716-13.989619 8.626471-22.459524 8.626471C845.822942 1009.589802 837.845247 1006.527047 831.827183 1000.963331z" p-id="36271"></path><path d="M876.414681 959.335235 876.414681 959.335235c12.4301 11.43954 12.4301 29.830399 0.070608 41.339524-12.283768 11.362792-32.099069 11.362792-44.39 0L393.309778 593.490989c-2.417049-1.349741-64.705698-57.812707-66.76459-59.802014-6.534833-5.964852-9.374508-13.849426-8.945743-21.663392-0.428765-7.883551 2.410909-15.769149 8.875135-21.735024 2.058892-1.987261-12.214183 9.380648 29.759791-25.424042L832.024681 23.381523c12.289907-11.438517 32.101115-11.438517 44.39 0 12.431124 11.363815 12.431124 29.759791 0 41.263799L394.301362 512.025583 876.414681 959.335235 876.414681 959.335235z" p-id="36272"></path></svg>