<?xml version="1.0" standalone="no"?><!DOCTYPE svg PUBLIC "-//W3C//DTD SVG 1.1//EN" "http://www.w3.org/Graphics/SVG/1.1/DTD/svg11.dtd"><svg t="1513234905655" class="icon" style="" viewBox="0 0 1024 1024" version="1.1" xmlns="http://www.w3.org/2000/svg" p-id="19717" xmlns:xlink="http://www.w3.org/1999/xlink" width="200" height="200"><defs><style type="text/css"></style></defs><path d="M464.252 677.478c9.948 9.158 25.396 8.719 34.816-1.024l299.828-309.423c9.567-9.918 9.362-25.688-0.556-35.314-9.89-9.596-25.717-9.362-35.314 0.556L463.2 641.697l34.845-0.995-181.452-166.766c-10.153-9.333-25.922-8.66-35.285 1.493-9.303 10.152-8.66 25.95 1.522 35.284l181.423 166.765zM1024 512C1024 229.259 794.77 0 512 0S0 229.259 0 512s229.23 512 512 512c117.409 0 228.82-39.673 318.757-111.323 10.766-8.602 12.58-24.342 3.979-35.08-8.602-10.796-24.313-12.58-35.08-3.979C718.438 938.277 618 974.028 512 974.028 256.848 974.029 49.971 767.182 49.971 512 49.971 256.82 256.848 49.942 512 49.942S974.029 256.819 974.029 512c0 87.508-24.342 171.3-69.603 243.975-7.256 11.703-3.686 27.092 8.017 34.377 11.702 7.285 27.12 3.687 34.406-7.957C996.996 701.879 1024 608.87 1024 512" fill="#333333" p-id="19718"></path></svg>