<?xml version="1.0" standalone="no"?><!DOCTYPE svg PUBLIC "-//W3C//DTD SVG 1.1//EN" "http://www.w3.org/Graphics/SVG/1.1/DTD/svg11.dtd"><svg t="1513234968583" class="icon" style="" viewBox="0 0 1024 1024" version="1.1" xmlns="http://www.w3.org/2000/svg" p-id="20391" xmlns:xlink="http://www.w3.org/1999/xlink" width="200" height="200"><defs><style type="text/css"></style></defs><path d="M901.722 872.641c-6.227 6.231-13.838 9.339-22.834 9.339h-97.558c-8.991 0-16.605-3.111-22.83-9.339-6.227-6.227-9.339-13.838-9.339-22.834v-129.729c0-8.991 3.111-16.691 9.339-23.093 6.226-6.4 13.838-9.597 22.83-9.597 8.995 0 16.695 3.202 23.094 9.597 6.403 6.403 9.605 14.097 9.605 23.094v97.041h64.86c8.995 0 16.603 3.197 22.834 9.597 6.227 6.397 9.339 14.098 9.339 23.094 0 8.99-3.111 16.603-9.339 22.83v0zM956.873 766.157c-9.466-21.644-22.322-40.58-38.549-56.81-16.234-16.235-35.167-29.077-56.81-38.55-21.643-9.465-44.637-14.201-68.978-14.201-24.887 0-48.148 4.737-69.792 14.201-21.641 9.472-40.573 22.317-56.805 38.55-16.227 16.226-29.084 35.165-38.543 56.81-9.471 21.641-14.207 44.631-14.207 68.978 0 24.885 4.737 48.151 14.207 69.79 9.46 21.647 22.316 40.575 38.543 56.81 16.234 16.233 35.167 28.948 56.805 38.145 21.644 9.197 44.909 13.794 69.792 13.794 24.347 0 47.343-4.598 68.978-13.794 21.643-9.198 40.58-21.915 56.81-38.145 16.234-16.234 29.084-35.161 38.549-56.81 9.471-21.638 14.202-44.903 14.202-69.79 0-24.347-4.737-47.335-14.202-68.978v0zM191.626 898.98c-36.063 0-65.577-29.513-65.577-65.584v-684.026c0-36.069 29.514-65.584 65.577-65.584h557.945c36.065 0 65.58 29.514 65.58 65.584v454.365c25.925 3.119 50.515 10.581 73.012 21.643v-483.44c0-72.142-59.023-131.164-131.162-131.164h-572.805c-72.141 0-131.162 59.022-131.162 131.164v698.899c0 72.138 59.022 131.156 131.162 131.156h424.669c-17.088-21.52-30.373-46.198-38.836-73.013l-378.402 0.001zM623.111 173.762h70.907l-166.431 284.889h131.952v57.786h-160.971v91.924h160.97v53.424h-159.938v136.633h-66.698v-136.633h-165.59v-53.424h165.59v-91.924h-165.59v-57.786h142.185l-167.914-284.889h73.679c77.479 141.506 136.948 231.222 153.634 269.153l154.211-269.153z" p-id="20392"></path></svg>