<?xml version="1.0" standalone="no"?><!DOCTYPE svg PUBLIC "-//W3C//DTD SVG 1.1//EN" "http://www.w3.org/Graphics/SVG/1.1/DTD/svg11.dtd"><svg t="1513234608373" class="icon" style="" viewBox="0 0 1024 1024" version="1.1" xmlns="http://www.w3.org/2000/svg" p-id="17305" xmlns:xlink="http://www.w3.org/1999/xlink" width="200" height="200"><defs><style type="text/css"></style></defs><path d="M171.363265 130.612245C82.546939 130.612245 10.44898 203.755102 10.44898 292.571429s72.097959 161.959184 161.959184 161.959184S333.322449 382.432653 333.322449 292.571429c0 0 0 0 0 0C333.322449 203.755102 261.22449 130.612245 171.363265 130.612245zM171.363265 414.82449C104.489796 414.82449 49.110204 360.489796 49.110204 292.571429S104.489796 170.318367 171.363265 170.318367c67.918367 0 122.253061 54.334694 122.253061 122.253061C293.616327 360.489796 239.281633 414.82449 171.363265 414.82449 171.363265 414.82449 171.363265 414.82449 171.363265 414.82449z" p-id="17306"></path><path d="M189.126531 192.261224 155.689796 192.261224 155.689796 277.942857 155.689796 296.75102 155.689796 313.469388 280.032653 313.469388 280.032653 277.942857 189.126531 277.942857 189.126531 192.261224Z" p-id="17307"></path><path d="M1018.77551 482.742857 866.220408 290.481633c-5.22449-5.22449-11.493878-8.359184-18.808163-8.359184l-198.530612 0 0-24.032653c0-15.673469-6.269388-31.346939-16.718367-42.840816l-3.134694-3.134694c-12.538776-12.538776-29.257143-18.808163-45.97551-18.808163L360.489796 193.306122c8.359184 14.628571 13.583673 31.346939 17.763265 47.020408l205.844898 0c5.22449 0 9.404082 2.089796 12.538776 5.22449l2.089796 2.089796c3.134694 3.134694 4.179592 7.314286 4.179592 11.493878l0 478.563265L419.004082 737.697959c-6.269388-29.257143-21.942857-55.379592-45.97551-74.187755l0 0-4.179592-3.134694 0 0c-38.661224-27.167347-90.906122-29.257143-131.657143-5.22449l0-2.089796-15.673469 13.583673L219.428571 667.689796 217.338776 668.734694l0 0c-20.897959 17.763265-34.481633 41.795918-39.706122 67.918367l-35.526531 0c-10.44898 0-17.763265-8.359184-17.763265-18.808163L124.342857 500.506122c-16.718367-4.179592-32.391837-9.404082-48.065306-16.718367l0 234.057143c0 36.571429 29.257143 65.828571 65.828571 65.828571 0 0 0 0 0 0L177.632653 783.673469c5.22449 26.122449 18.808163 50.155102 39.706122 68.963265l0 0 3.134694 3.134694 0 0 15.673469 13.583673L236.146939 867.265306c35.526531 20.897959 79.412245 21.942857 115.983673 4.179592l0 2.089796 13.583673-10.44898 2.089796-1.044898 4.179592-3.134694 0 0c24.032653-17.763265 40.75102-44.930612 47.020408-74.187755l265.404082 0c11.493878 56.42449 60.604082 98.220408 118.073469 99.265306l0 1.044898 10.44898-1.044898 4.179592 0 4.179592 0 0 0c51.2-7.314286 92.995918-47.020408 103.444898-98.220408l44.930612 0c29.257143 0 53.289796-24.032653 53.289796-53.289796L1022.955102 497.371429C1024 492.146939 1021.910204 486.922449 1018.77551 482.742857zM355.265306 809.795918l-1.044898 1.044898c-27.167347 31.346939-75.232653 33.436735-106.579592 6.269388-5.22449-4.179592-9.404082-9.404082-13.583673-15.673469l-1.044898-1.044898c-15.673469-25.077551-15.673469-56.42449 1.044898-80.457143l0 0c21.942857-35.526531 68.963265-44.930612 103.444898-22.987755 6.269388 4.179592 12.538776 9.404082 16.718367 14.628571l0 0C379.297959 739.787755 379.297959 781.583673 355.265306 809.795918L355.265306 809.795918zM820.244898 834.873469 811.885714 835.918367c-2.089796 0-4.179592 0-6.269388 0-41.795918-2.089796-73.142857-38.661224-71.053061-79.412245 2.089796-37.616327 32.391837-67.918367 70.008163-71.053061l7.314286 1.044898c41.795918 4.179592 72.097959 40.75102 67.918367 81.502041C877.714286 800.391837 853.681633 827.559184 820.244898 834.873469L820.244898 834.873469zM975.934694 730.383673c0 3.134694-2.089796 5.22449-5.22449 6.269388 0 0 0 0 0 0l-43.885714 0c-10.44898-51.2-51.2-89.861224-103.444898-97.17551l0-1.044898-9.404082 0-3.134694 0L803.526531 637.387755l0 0c-57.469388 1.044898-107.62449 42.840816-118.073469 99.265306l-35.526531 0 0-407.510204L835.918367 329.142857l30.302041 37.616327-85.681633 0c-30.302041 0-54.334694 24.032653-54.334694 54.334694l0 95.085714c0 30.302041 24.032653 54.334694 54.334694 54.334694l196.440816 0L975.934694 730.383673zM975.934694 523.493878 779.493878 523.493878c-3.134694 0-6.269388-3.134694-6.269388-6.269388l0-95.085714c0-4.179592 3.134694-7.314286 7.314286-7.314286l123.297959 0 72.097959 90.906122L975.934694 523.493878z" p-id="17308"></path></svg>