<?xml version="1.0" standalone="no"?><!DOCTYPE svg PUBLIC "-//W3C//DTD SVG 1.1//EN" "http://www.w3.org/Graphics/SVG/1.1/DTD/svg11.dtd"><svg t="1513650547735" class="icon" style="" viewBox="0 0 1024 1024" version="1.1" xmlns="http://www.w3.org/2000/svg" p-id="3064" xmlns:xlink="http://www.w3.org/1999/xlink" width="200" height="200"><defs><style type="text/css"></style></defs><path d="M870.756174 870.845217c-0.311652 0-0.534261 0-0.801391-0.089043a20.034783 20.034783 0 0 1-19.277913-20.880696l5.075478-133.12c0.445217-11.130435 9.216-20.791652 20.791652-19.366956a20.034783 20.034783 0 0 1 19.233391 20.925217l-5.075478 133.12a20.034783 20.034783 0 0 1-19.945739 19.366957z" p-id="3065"></path><path d="M1003.25287 875.876174h-0.801392l-132.496695-5.12a20.034783 20.034783 0 0 1-19.277913-20.880696c0.400696-11.130435 9.928348-20.658087 20.791652-19.322435l132.541217 5.075479a20.079304 20.079304 0 1 1-0.756869 40.247652zM682.429217 765.862957H352.834783c-47.771826 0-86.639304-39.312696-86.639305-87.663305V353.769739c0-48.350609 38.822957-87.707826 86.639305-87.707826h329.594434a87.262609 87.262609 0 0 1 86.728348 87.707826v324.429913a87.262609 87.262609 0 0 1-86.728348 87.707826z m-335.337739-463.026087c-24.665043 0-44.744348 20.301913-44.744348 45.278608v335.738435c0 24.976696 20.034783 45.278609 44.744348 45.278609h341.081044c24.754087 0 44.78887-20.301913 44.788869-45.278609V348.16c0-24.976696-20.034783-45.278609-44.788869-45.278609h-341.036522z" p-id="3066"></path><path d="M484.485565 595.656348a17.541565 17.541565 0 0 1-12.510608-5.209044l-53.648696-53.604174a17.719652 17.719652 0 0 1 25.065739-25.021217l53.604174 53.604174a17.719652 17.719652 0 0 1-12.466087 30.230261z" p-id="3067"></path><path d="M472.82087 589.913043a21.103304 21.103304 0 0 1 0-29.829565l135.791304-135.835826a21.103304 21.103304 0 1 1 29.918609 29.829565L502.650435 589.913043a21.014261 21.014261 0 0 1-29.829565 0z" p-id="3068"></path><path d="M698.234435 950.227478a16.962783 16.962783 0 0 1 22.394435 8.904348 17.096348 17.096348 0 0 1-8.904348 22.438957 504.431304 504.431304 0 0 1-201.861565 41.894956 506.345739 506.345739 0 0 1-360.002783-149.77113A511.065043 511.065043 0 0 1 0.712348 512c0-141.222957 56.987826-269.133913 149.147826-361.650087A506.212174 506.212174 0 0 1 509.862957 0.534261c140.599652 0 267.887304 57.254957 360.002782 149.815652a511.020522 511.020522 0 0 1 148.168348 392.058435c-0.578783 10.418087-1.424696 20.48-2.626783 30.274782a17.051826 17.051826 0 1 1-33.836521-4.051478 488.358957 488.358957 0 0 0 3.250087-56.631652c0-131.784348-53.158957-251.102609-139.085913-337.385739a472.375652 472.375652 0 0 0-335.872-139.798261c-131.161043 0-249.900522 53.426087-335.872 139.798261A476.649739 476.649739 0 0 0 34.860522 512c0 131.784348 53.158957 251.102609 139.130435 337.474783a472.375652 472.375652 0 0 0 335.872 139.709217 469.081043 469.081043 0 0 0 188.416-38.912z" p-id="3069"></path></svg>