<?xml version="1.0" standalone="no"?><!DOCTYPE svg PUBLIC "-//W3C//DTD SVG 1.1//EN" "http://www.w3.org/Graphics/SVG/1.1/DTD/svg11.dtd"><svg t="1513234037597" class="icon" style="" viewBox="0 0 1201 1024" version="1.1" xmlns="http://www.w3.org/2000/svg" p-id="33679" xmlns:xlink="http://www.w3.org/1999/xlink" width="234.5703125" height="200"><defs><style type="text/css"></style></defs><path d="M1129.931382 882.761518c0 38.997281-31.618599 70.620921-70.622602 70.620921L141.240162 953.382439c-38.997281 0-70.624282-31.623641-70.624282-70.620921L70.61588 141.240162c0-38.997281 31.627001-70.61588 70.624282-70.61588l634.485944 0 1.102349 0L776.828455 0 105.931382 0C47.43294 0 0 47.43294 0 105.933063l0 812.135555c0 58.520287 47.43294 105.931382 105.931382 105.931382l988.69122 0c58.511885 0 105.931382-47.411095 105.931382-105.931382L1200.553984 423.727209l-70.622602 0L1129.931382 882.761518 1129.931382 882.761518zM1094.622602 0 883.862187 0l-1.102349 0 0 70.624282 1.102349 0 175.444913 0c2.186214 0 4.352263 0.110907 6.484703 0.307515L342.094559 718.592158l50.445916 54.10921 732.238769-657.934389c3.315449 8.180237 5.152138 17.113298 5.152138 26.473183l0 176.555664 70.622602 0L1200.553984 105.933063C1200.548943 47.43294 1153.136167 0 1094.622602 0L1094.622602 0zM1094.622602 0" p-id="33680"></path></svg>