<?xml version="1.0" standalone="no"?><!DOCTYPE svg PUBLIC "-//W3C//DTD SVG 1.1//EN" "http://www.w3.org/Graphics/SVG/1.1/DTD/svg11.dtd"><svg t="1513235085504" class="icon" style="" viewBox="0 0 1024 1024" version="1.1" xmlns="http://www.w3.org/2000/svg" p-id="59410" xmlns:xlink="http://www.w3.org/1999/xlink" width="200" height="200"><defs><style type="text/css"></style></defs><path d="M955.392 906.24l-151.04-161.792c61.44-74.24 94.72-168.448 94.72-265.216C899.072 249.344 711.68 61.44 480.768 61.44S62.464 249.344 62.464 479.744c0 230.912 187.904 418.304 418.304 418.304 60.416 0 118.784-12.8 173.056-37.376 8.704-4.096 14.848-10.752 17.92-19.456 3.072-8.704 2.56-17.92-1.024-26.112-4.096-8.704-10.752-14.848-19.456-17.92-8.704-3.072-17.92-3.072-26.112 1.024-45.568 20.48-94.208 31.232-144.896 31.232-192.512 0-349.184-156.672-349.184-349.184s156.672-349.184 349.184-349.184S829.44 287.744 829.44 480.256c0 90.624-34.816 176.64-97.28 242.176-6.144 6.656-9.728 15.36-9.728 24.576 0 9.216 4.096 17.92 10.752 24.576 0.512 0.512 1.536 1.024 2.048 1.536 0.512 0 0.512 0.512 1.024 0.512 0 0.512 0.512 0.512 0.512 1.024 0.512 1.024 1.024 2.048 2.048 3.072l165.376 177.152c6.656 7.168 15.872 10.752 25.088 10.752 8.704 0 16.896-3.072 23.552-9.216 6.656-6.144 10.752-14.848 11.264-24.064 1.024-10.24-2.56-18.944-8.704-26.112z" p-id="59411"></path></svg>