<?xml version="1.0" standalone="no"?><!DOCTYPE svg PUBLIC "-//W3C//DTD SVG 1.1//EN" "http://www.w3.org/Graphics/SVG/1.1/DTD/svg11.dtd"><svg t="1513235246797" class="icon" style="" viewBox="0 0 1024 1024" version="1.1" xmlns="http://www.w3.org/2000/svg" p-id="41739" xmlns:xlink="http://www.w3.org/1999/xlink" width="200" height="200"><defs><style type="text/css"></style></defs><path d="M960.768 63.488c-6.144-6.144-14.176-9.216-22.208-9.216L84.064 54.272c-8.032 0-16.064 3.072-22.208 9.216C55.744 69.632 52.672 77.664 52.672 85.696l0 854.464c0 8.032 3.072 16.064 9.216 22.208 6.144 6.144 14.176 9.216 22.208 9.216L938.56 971.584c8.032 0 16.064-3.072 22.208-9.216 6.144-6.144 9.184-14.176 9.184-22.208L969.952 85.696C969.952 77.664 966.88 69.632 960.768 63.488zM873.472 465.248c-4.544 5.312-9.312 9.056-14.656 12.608l-167.616 110.592c-2.752 1.184-7.52 9.472-7.104 15.328 0 1.632 0.224 2.944 0.544 3.84l73.6 215.936c2.176 6.688 3.776 12.992 3.84 20.864-0.096 6.016-0.832 14.144-7.2 23.04-5.952 8.768-18.08 14.016-26.72 14.016-0.416 0-0.832 0-1.216-0.032-16.832-0.896-23.904-7.36-32.48-13.6l-173.6-141.376c-1.344-1.184-4.576-2.528-8.32-2.496-3.872-0.032-7.296 1.44-8.64 2.688l-164.704 140.256c-8.512 6.464-15.712 13.248-32.928 14.208-9.088 0.576-22.4-5.216-28.416-14.432-6.208-8.992-6.912-16.96-7.008-23.104 0.064-7.328 1.408-13.312 3.264-19.52l65.472-214.592c0.288-0.928 0.48-2.208 0.48-3.744 0.48-6.208-4.832-15.584-7.84-16.864l-168.448-111.008c-5.312-3.552-10.08-7.296-14.624-12.608-4.288-5.248-9.504-12.8-9.76-25.184-0.16-7.712 3.072-16.352 7.808-21.92 4.672-5.696 9.888-8.8 14.4-10.816 9.12-3.84 16.608-4.384 24.704-4.48l209.024-0.128c1.952 0.096 6.432-1.216 10.112-4.096 3.808-2.816 6.24-6.752 6.656-8.672l60.544-217.472c1.92-6.848 4.16-13.088 8.704-19.872 4.128-6.112 13.376-16.224 29.888-16.576 16.608 0.384 25.792 10.496 29.92 16.576 4.544 6.752 6.784 12.928 8.736 19.776l60.576 217.568c0.416 1.888 2.848 5.856 6.656 8.672 3.712 2.912 8.192 4.224 10.144 4.096l208.992 0.128c6.048 0.032 11.84 0.48 18.176 2.176 6.176 1.824 13.792 4.672 20.96 13.184 4.672 5.568 7.904 14.176 7.744 21.888C882.944 452.448 877.728 459.968 873.472 465.248z" p-id="41740"></path></svg>