<?xml version="1.0" standalone="no"?><!DOCTYPE svg PUBLIC "-//W3C//DTD SVG 1.1//EN" "http://www.w3.org/Graphics/SVG/1.1/DTD/svg11.dtd"><svg t="1513234300889" class="icon" style="" viewBox="0 0 1024 1024" version="1.1" xmlns="http://www.w3.org/2000/svg" p-id="40206" xmlns:xlink="http://www.w3.org/1999/xlink" width="200" height="200"><defs><style type="text/css"></style></defs><path d="M1020.785284 390.808824c-5.03876-15.454994-22.205745-34.17945-38.028105-37.9708l-273.855158-66.00632L558.521035 43.508933c-8.509814-13.866822-29.92966-21.843494-46.191018-21.843494-16.275685 0-39.181371 7.976672-47.690162 21.843494l-149.604296 243.321748L41.901831 352.660992c-15.796778 3.791349-33.662681 25.743314-38.687114 41.198308-5.015224 15.454994 0.073678 44.472887 10.628058 56.822147l179.466418 210.416314-21.320585 274.569426c-1.25969 16.189727 10.945283 42.488697 24.088628 52.076052 8.132214 5.865591 26.876114 12.202926 36.608779 12.202926 6.052856 0 19.391652-0.325411 25.13854-2.723018L511.963673 892.39873l254.782777 105.084337c5.747911 2.397606 20.2236 2.462075 26.263154 2.462075 9.734712 0 27.448142-8.370645 35.591613-14.237259 13.158694-9.586332 24.709775-32.5483 23.461341-48.738028l-21.419845-275.873118 180.62173-211.784474C1021.803473 436.964026 1025.798461 406.262794 1020.785284 390.808824zM956.982142 448.037223 788.264533 645.865847l21.718651 280.915971c1.081635 14.034645 1.550309 19.092847-9.854439 27.403117-7.061836 5.086855-11.186783 7.119141-22.37152 1.37737-5.238304 0-20.316721-7.918343-25.303292-9.995655l-240.461607-99.180883L271.537881 945.56665c-4.982478 2.076288-24.453948 13.465686-29.701462 13.465686-8.438183 0-14.304797-1.794879-21.355377-6.881734-11.393491-8.311293-5.953595-33.129538-4.860704-47.165206l20.120246-259.120572L67.010695 448.037223c-9.147334-10.705829-28.838815-27.558659-24.490787-40.956807 4.355191-13.398148 9.69378-17.051351 23.38971-20.338211l275.359418-65.339124L484.80001 87.935772c7.375991-12.021801 13.090133-25.606191 27.200502-25.606191 14.097066 0 19.792788 13.58439 27.170826 25.606191L682.722778 321.402057l272.913717 65.493643c13.71742 3.287883 22.150486 5.768377 26.521027 19.166525C986.502479 419.460374 966.12129 437.331393 956.982142 448.037223z" p-id="40207"></path></svg>