<?xml version="1.0" standalone="no"?><!DOCTYPE svg PUBLIC "-//W3C//DTD SVG 1.1//EN" "http://www.w3.org/Graphics/SVG/1.1/DTD/svg11.dtd"><svg t="1513234391441" class="icon" style="" viewBox="0 0 1024 1024" version="1.1" xmlns="http://www.w3.org/2000/svg" p-id="41988" xmlns:xlink="http://www.w3.org/1999/xlink" width="200" height="200"><defs><style type="text/css"></style></defs><path d="M334.169136 1010.13422c-39.772895 0-72.24801-32.353486-72.24801-72.24801 0-39.772895 32.353486-72.24801 72.24801-72.248011s72.24801 32.353486 72.248011 72.248011c0 39.772895-32.353486 72.24801-72.248011 72.24801zM831.026245 1010.13422c-39.772895 0-72.24801-32.353486-72.24801-72.24801 0-39.772895 32.353486-72.24801 72.24801-72.248011 39.772895 0 72.24801 32.353486 72.248011 72.248011 0 39.772895-32.353486 72.24801-72.248011 72.24801zM325.046913 832.554935c-51.6926 0-97.182088-40.867561-103.50683-93.16831L161.333408 315.872194 127.033847 117.494239c-1.946074-16.055113-16.906521-30.164153-31.988597-30.164152h-45.246229c-20.190521 0-36.732153-16.420002-36.732153-36.732154 0-20.190521 16.541632-36.732153 36.732153-36.732153h45.246229c52.300748 0 98.276755 40.867561 104.723126 92.92505L233.946307 304.317377l60.449935 425.703766c1.824445 15.446965 16.176743 29.069486 30.7723 29.069485h576.524528c20.190521 0 36.732153 16.541632 36.732154 36.732154s-16.420002 36.610524-36.732154 36.610524l-576.646157 0.121629z" fill="#7F7F7F" p-id="41989"></path><path d="M369.441734 690.613137c-19.095855 0-35.150968-14.960447-36.610524-34.056301-0.729778-9.730372 2.432593-19.217484 8.878964-26.636893 6.324742-7.419408 15.203706-11.919705 25.055708-12.649483l481.653403-35.515857c16.541632-0.12163 31.258819-12.771113 33.204893-28.704597L937.452187 233.528923c1.459556-12.284594-2.067704-24.812448-8.635705-32.231857-4.257038-4.865186-9.730372-7.419408-16.055114-7.419408H298.166761c-20.312151 0-36.732153-16.420002-36.732154-36.732154 0-20.190521 16.541632-36.732153 36.732154-36.732153H912.639738c27.4883 0 52.665637 11.433187 71.031714 32.110227 20.920299 23.596152 30.529041 56.922675 26.272004 91.465494l-55.949637 319.764343c-3.040741 24.690818-15.325336 47.557192-34.54282 64.706972-19.339114 17.14978-43.665043 26.636893-68.477492 26.758523l-478.97755 35.394227h-2.554223z" fill="#7F7F7F" p-id="41990"></path></svg>