<?xml version="1.0" standalone="no"?><!DOCTYPE svg PUBLIC "-//W3C//DTD SVG 1.1//EN" "http://www.w3.org/Graphics/SVG/1.1/DTD/svg11.dtd"><svg t="1513235017661" class="icon" style="" viewBox="0 0 1024 1024" version="1.1" xmlns="http://www.w3.org/2000/svg" p-id="21175" xmlns:xlink="http://www.w3.org/1999/xlink" width="200" height="200"><defs><style type="text/css"></style></defs><path d="M438.908 402.274c92.373 0 188.38-20.314 246.025-58.993v70.494h53.406v-154.42c0-92.835-154.277-142.927-299.432-142.927s-299.425 50.093-299.425 142.928v421.283c0 92.831 154.272 142.918 299.427 142.918v-53.402c-152.429 0-246.021-52.14-246.021-89.517v-126.71c57.651 38.678 153.653 58.994 246.021 58.994v-53.406c-152.429 0-246.021-52.14-246.021-89.522V343.285c57.64 38.673 153.642 58.988 246.02 58.988z m0-232.441c152.434 0 246.025 52.141 246.025 89.522 0 37.377-93.593 89.513-246.025 89.513-152.429 0-246.021-52.135-246.021-89.513 0-37.381 93.593-89.522 246.021-89.522z m239.352 261.63c-132.588 0-201.963 51.009-201.963 101.39v270.719c0 50.38 69.376 101.384 201.963 101.384 131.595 0 200.879-50.247 201.907-100.261h0.05V532.848c-0.001-50.381-69.367-101.384-201.957-101.384z m0 53.406c98.01 0 148.55 33.631 148.55 47.983 0 14.356-50.541 47.988-148.55 47.988-98.017 0-148.557-33.63-148.557-47.988 0-14.352 50.55-47.983 148.557-47.983z m0 366.672c-98.017 0-148.557-33.633-148.557-47.983v-64.627c33.888 18.403 83.623 30.656 148.557 30.656s114.662-12.254 148.55-30.656v64.627c0 14.351-50.541 47.983-148.55 47.983z m0-135.355c-98.017 0-148.557-33.631-148.557-47.983v-64.627c33.888 18.404 83.623 30.662 148.557 30.662s114.662-12.248 148.55-30.652v64.627c0 14.343-50.541 47.975-148.55 47.975z m0 0z" p-id="21176"></path></svg>