<?xml version="1.0" standalone="no"?><!DOCTYPE svg PUBLIC "-//W3C//DTD SVG 1.1//EN" "http://www.w3.org/Graphics/SVG/1.1/DTD/svg11.dtd"><svg t="1513233552429" class="icon" style="" viewBox="0 0 1024 1024" version="1.1" xmlns="http://www.w3.org/2000/svg" p-id="26580" xmlns:xlink="http://www.w3.org/1999/xlink" width="200" height="200"><defs><style type="text/css"></style></defs><path d="M435.166077 235.669464c-12.784164 0-23.150256 10.354835-23.150256 23.150256l0 324.101539c0 12.795421 10.366092 23.150256 23.150256 23.150256 12.783141 0 23.150256-10.354835 23.150256-23.150256l0-324.101539C458.316334 246.025323 447.949218 235.669464 435.166077 235.669464zM574.066591 235.669464c-12.784164 0-23.150256 10.354835-23.150256 23.150256l0 324.101539c0 12.795421 10.366092 23.150256 23.150256 23.150256 12.783141 0 23.150256-10.354835 23.150256-23.150256l0-324.101539C597.216847 246.025323 586.849732 235.669464 574.066591 235.669464zM504.616846 4.168949c-127.85597 0-231.501538 103.654778-231.501538 231.501538L273.115308 698.67254c0 25.569352 20.730137 46.300512 46.300512 46.300512l162.05077 0 0 254.651794c0 12.795421 10.366092 23.150256 23.150256 23.150256 12.783141 0 23.150256-10.354835 23.150256-23.150256L527.767102 744.973052l162.05077 0c25.569352 0 46.300512-20.73116 46.300512-46.300512L736.118384 235.669464C736.11736 107.823728 632.471792 4.168949 504.616846 4.168949zM689.817871 698.67254 319.414797 698.67254 319.414797 235.669464c0-102.277408 82.912361-185.201026 185.201026-185.201026 102.288664 0 185.201026 82.923618 185.201026 185.201026L689.816848 698.67254z" p-id="26581"></path></svg>